inDegrees=no
num_controls=7
num_derivatives=13
num_iterations=159
num_multipliers=7
num_parameters=0
num_slacks=7
num_states=26
objective=5.620209
objective_accelerations=0.878110
objective_balance=0.020209
objective_effort=0.197475
objective_height=4.428421
objective_ligament=0.095994
solver_duration=1864.861246
status=Solve_Succeeded
success=true
DataType=double
version=3
OpenSimVersion=4.4-2022-07-23-0e9fedc
endheader
time	/jointset/ground_pelvis/pelvis_tilt/value	/jointset/ground_pelvis/pelvis_tx/value	/jointset/ground_pelvis/pelvis_ty/value	/jointset/hip_l/hip_flexion_l/value	/jointset/hip_l/hip_adduction_l/value	/jointset/hip_l/hip_rotation_l/value	/jointset/back/lumbar_extension/value	/jointset/patellofemoral_l/patellar_flexion_l/value	/jointset/knee_l/knee_flexion_l/value	/jointset/knee_l/knee_adduction_l/value	/jointset/knee_l/knee_rotation_l/value	/jointset/ankle_l/ankle_angle_l/value	/jointset/subtalar_l/subtalar_angle_l/value	/jointset/ground_pelvis/pelvis_tilt/speed	/jointset/ground_pelvis/pelvis_tx/speed	/jointset/ground_pelvis/pelvis_ty/speed	/jointset/hip_l/hip_flexion_l/speed	/jointset/hip_l/hip_adduction_l/speed	/jointset/hip_l/hip_rotation_l/speed	/jointset/back/lumbar_extension/speed	/jointset/patellofemoral_l/patellar_flexion_l/speed	/jointset/knee_l/knee_flexion_l/speed	/jointset/knee_l/knee_adduction_l/speed	/jointset/knee_l/knee_rotation_l/speed	/jointset/ankle_l/ankle_angle_l/speed	/jointset/subtalar_l/subtalar_angle_l/speed	/forceset/tau_hip_flexion_l	/forceset/tau_hip_adduction_l	/forceset/tau_hip_rotation_l	/forceset/tau_knee_flexion_l	/forceset/tau_ankle_angle_l	/forceset/tau_subtalar_angle_l	/forceset/tau_lumbar_extension	lambda_cid13_p0	lambda_cid13_p1	lambda_cid13_p2	lambda_cid13_p3	lambda_cid13_p4	lambda_cid13_p5	lambda_cid14_p0	/jointset/ground_pelvis/pelvis_tilt/accel	/jointset/ground_pelvis/pelvis_tx/accel	/jointset/ground_pelvis/pelvis_ty/accel	/jointset/hip_l/hip_flexion_l/accel	/jointset/hip_l/hip_adduction_l/accel	/jointset/hip_l/hip_rotation_l/accel	/jointset/back/lumbar_extension/accel	/jointset/patellofemoral_l/patellar_flexion_l/accel	/jointset/knee_l/knee_flexion_l/accel	/jointset/knee_l/knee_adduction_l/accel	/jointset/knee_l/knee_rotation_l/accel	/jointset/ankle_l/ankle_angle_l/accel	/jointset/subtalar_l/subtalar_angle_l/accel	gamma_cid13_p0	gamma_cid13_p1	gamma_cid13_p2	gamma_cid13_p3	gamma_cid13_p4	gamma_cid13_p5	gamma_cid14_p0
1	-0.498470589501959	-0.01347540778973124	0.5460838907505773	1.875028308491638	-0.3376499789859654	0.1532735587410785	-0.4363283359486829	1.626073820272733	1.626073820272726	0.09782608946940081	-0.1745290337297399	0.4348201067924202	0.2635675755108581	-0.1497149951033924	-0.00500387000971832	0.03375492550536137	0.03404336420826781	-0.0002237199312056693	-0.06350408631299359	7.954485995914604e-05	-0.1530198140449766	-0.153019814044969	0.001348634665708866	6.144241501454001e-07	-0.05100161615712581	-0.03220781286918372	-0.2681340440755045	0.02982773521526282	-0.02235256642295307	-0.2941194309905221	-0.04579559320778929	0.01243289404118619	0.2253372429819807	-47.86099137859056	8.553634537538329	-8.010545673540454	10.97127243400768	-553.6943354003469	-67.86968078353497	-0.0231832748647413	1.523422266506737	0.07962199960928865	2.275722262189718	-7.242053274278081	-0.2781231314265274	-1.707127408243307	-0.016545361376598	-6.047382834117396	-6.047382834117434	-0.9636427349320617	-0.03638054799476831	-0.8630903607917607	-0.9814260035050681	1.117900998158033e-09	-1.736903389593791e-07	-1.014049972322397e-07	-1.995379110302363e-08	-1.106696094051881e-08	-2.845629110037283e-07	1.384741582121978e-08
1.01	-0.4998922204561647	-0.01352141921176228	0.5465350184929012	1.875007592918695	-0.3376653085348111	0.1525560795659372	-0.4363275077351769	1.624241707291959	1.624241707291945	0.09778958454321347	-0.174529019130654	0.4342669979303639	0.2631978116366405	-0.1345967749998844	-0.004187260613571505	0.05646097523466626	-0.03817748556931347	-0.002835236225164563	-0.07998012121076337	8.299140594289322e-05	-0.2133924764801863	-0.213392476480128	-0.008642627902166227	2.004805035713926e-06	-0.05962898130149644	-0.04173249614050475	-0.2684581887361245	0.02983483560374174	-0.02238439095568329	-0.2932957523969413	-0.04584045462000527	0.01249876512158192	0.2254914284460185	-47.82922174429147	8.488343211643492	-7.96458913025311	10.77167837090403	-553.482204990656	-67.75517868661231	-0.02319817351656362	1.508185795938462	0.08434680742703868	2.266595625221994	-7.210751155956299	-0.2516021771341033	-1.616102310015238	0.008323696569911474	-6.030665802926617	-6.030665802918988	-1.01582801403619	0.01830799878648375	-0.8638930263793779	-0.9360654841196807	2.166198953781369e-09	-2.299505354942059e-07	-1.474511856250404e-07	-3.321479309683555e-08	-1.765536458697975e-08	-3.71862039023e-07	1.844932334754535e-08
1.02	-0.5011622364266085	-0.01355893126026977	0.5472129165919023	1.874264938782671	-0.3377065405063491	0.1516741878859135	-0.4363267382493898	1.621806176115891	1.621806176115874	0.09765337499222335	-0.1745290087942323	0.4336273487298429	0.2627331857306747	-0.1193919983497474	-0.003303995305009052	0.07910899684080053	-0.1103443484052158	-0.005404204469255048	-0.09638658728739527	6.779931129438421e-05	-0.2737034531035523	-0.2737034531034445	-0.01859229032288761	-2.381078292095439e-07	-0.0683096838506539	-0.05118021921878947	-0.268782333396805	0.02984193599217304	-0.02241621548806592	-0.2924720738033537	-0.04588531603222473	0.01256463620189088	0.2256456139099835	-47.80075596005945	8.422332005956102	-7.917034352457093	10.57509640064545	-553.3654583381086	-67.63489806312195	-0.02321576361337501	1.54073357583244	0.09295318209245902	2.264116637555601	-7.231255885942299	-0.269613521452872	-1.693213644015738	-0.02027308950317838	-6.03504567174867	-6.035045671748952	-0.9553227055013294	-0.03710720674487946	-0.8737578417490434	-0.9660339648977881	3.11499453870598e-09	-2.838461582290841e-07	-1.909354547179394e-07	-4.573547290214029e-08	-2.407512926823293e-08	-4.525010567694373e-07	2.251456909351085e-08
1.03	-0.5022797378336966	-0.01358721922613601	0.5481169187911569	1.872801055472675	-0.337773210094668	0.1506285821898929	-0.4363262096108709	1.618767948344928	1.618767948344908	0.09741798252788292	-0.1745290326378004	0.4329005503835341	0.2621745058431526	-0.104090600801614	-0.002336636306820275	0.1016732896277542	-0.1824069590564977	-0.007918762772311986	-0.1127177295320321	3.51890080120202e-05	-0.3339214190342931	-0.3339214190342063	-0.02847396630244444	-3.999510912940393e-06	-0.07706599826805284	-0.06053900454171576	-0.2688067206336473	0.02981178139090728	-0.02239530090338723	-0.2915632832054521	-0.04570032886259195	0.01270491983791601	0.2256190831728372	-47.66424923493742	8.295923566077482	-7.849385046218592	10.26938680729849	-552.950997187602	-67.58804955845198	-0.0232389036769985	1.527495474965796	0.1011597674788662	2.249856454404432	-7.189960377549	-0.2407002030854259	-1.600548514087977	0.004834091081521824	-6.012075084970364	-6.012075084973256	-1.002768293144719	0.01799865644797686	-0.8789842430993023	-0.9182059183467436	4.062774793317337e-09	-3.377176526598811e-07	-2.343935817771659e-07	-5.824859839939904e-08	-3.049317314371869e-08	-5.33072114206968e-07	2.657433869886043e-08
1.04	-0.5032436947391776	-0.01360532710026084	0.5492460180893085	1.870617306711604	-0.3378646899096873	0.1494201682715404	-0.4363260892569732	1.61512816030841	1.615128160308376	0.09708413765410372	-0.1745290922426987	0.43208570569278	0.2615227570819297	-0.08868309802699242	-0.001267976956728587	0.1241284166202642	-0.2543174386208861	-0.01036624980949463	-0.1289482317526867	-1.385762237071752e-05	-0.3940155062143793	-0.3940155062143111	-0.03828277224048332	-7.390372472851221e-06	-0.08591895274001191	-0.06979399395891063	-0.2688311078704327	0.02978162678962169	-0.02237438631832258	-0.290654492607546	-0.04551534169297924	0.01284520347388905	0.2255925524357439	-47.53134454625147	8.168917511182233	-7.78023702656322	9.967296140515675	-552.6330353573667	-67.53631849953734	-0.02326461894150941	1.56195462112996	0.1132132524730914	2.242283478666868	-7.200829668563625	-0.2561992682780472	-1.673085639219299	-0.02356035492318193	-6.010269921617762	-6.010269921617565	-0.9407486971977552	-0.03703309844013529	-0.8930858526609697	-0.9452747837514861	4.763029237443531e-09	-3.875961289962289e-07	-2.736032026820839e-07	-6.942045870458596e-08	-3.645811478008028e-08	-6.033199766970533e-07	2.981844785765682e-08
